<svg width="5" height="18" viewBox="0 0 5 18" fill="none" xmlns="http://www.w3.org/2000/svg">
<path d="M4.86594 2.59192C4.87251 3.33402 4.46854 4.02338 3.80619 4.40026C3.14384 4.77726 2.32374 4.78453 1.65482 4.41932C0.985894 4.05417 0.569772 3.37208 0.563198 2.63003C0.556624 1.88799 0.960596 1.19857 1.62295 0.821692C2.2853 0.444685 3.10539 0.43742 3.77432 0.802632C4.44324 1.16778 4.85936 1.84987 4.86594 2.59192ZM4.92377 9.12025C4.93035 9.86235 4.52637 10.5517 3.86402 10.9286C3.20167 11.3056 2.38158 11.3129 1.71265 10.9476C1.04373 10.5825 0.627607 9.90041 0.621033 9.15836C0.614459 8.41632 1.01843 7.7269 1.68078 7.35002C2.34313 6.97302 3.16323 6.96575 3.83215 7.33096C4.50108 7.69611 4.9172 8.3782 4.92377 9.12025ZM4.98161 15.6486C4.98818 16.3907 4.58421 17.08 3.92186 17.4569C3.25951 17.8339 2.43941 17.8412 1.77049 17.476C1.10156 17.1108 0.685442 16.4287 0.678868 15.6867C0.672294 14.9446 1.07627 14.2552 1.73862 13.8784C2.40097 13.5013 3.22106 13.4941 3.88999 13.8593C4.55891 14.2244 4.97503 14.9065 4.98161 15.6486Z" fill="#333333"/>
</svg>
