<svg width="55" height="54" viewBox="0 0 55 54" fill="none" xmlns="http://www.w3.org/2000/svg">
<rect x="0.76001" y="0.0600052" width="53.48" height="53.48" rx="15.28" fill="#F6F5FD"/>
<rect x="1.23751" y="0.537505" width="52.525" height="52.525" rx="14.8025" stroke="url(#paint0_linear_21_773)" stroke-opacity="0.25" stroke-width="0.955"/>
<path fill-rule="evenodd" clip-rule="evenodd" d="M36.3145 29.8641C36.3145 35.3509 31.8666 39.7989 26.3798 39.7989C24.8455 39.7989 23.3924 39.4511 22.0951 38.83C21.6493 38.6165 21.1441 38.5416 20.6666 38.6693L19.144 39.0767C17.944 39.3978 16.8461 38.2999 17.1672 37.0999L17.5746 35.5774C17.7024 35.0998 17.6274 34.5947 17.414 34.1488C16.7929 32.8515 16.4451 31.3984 16.4451 29.8641C16.4451 24.3774 20.893 19.9294 26.3798 19.9294C31.8666 19.9294 36.3145 24.3774 36.3145 29.8641ZM22.0333 31.106C22.7192 31.106 23.2752 30.55 23.2752 29.8641C23.2752 29.1783 22.7192 28.6223 22.0333 28.6223C21.3475 28.6223 20.7915 29.1783 20.7915 29.8641C20.7915 30.55 21.3475 31.106 22.0333 31.106ZM26.3798 31.106C27.0656 31.106 27.6216 30.55 27.6216 29.8641C27.6216 29.1783 27.0656 28.6223 26.3798 28.6223C25.6939 28.6223 25.1379 29.1783 25.1379 29.8641C25.1379 30.55 25.6939 31.106 26.3798 31.106ZM30.7262 31.106C31.4121 31.106 31.9681 30.55 31.9681 29.8641C31.9681 29.1783 31.4121 28.6223 30.7262 28.6223C30.0404 28.6223 29.4844 29.1783 29.4844 29.8641C29.4844 30.55 30.0404 31.106 30.7262 31.106Z" fill="#333333"/>
<path opacity="0.6" d="M36.2948 30.4956C36.4288 30.4401 36.561 30.3811 36.6912 30.3188C37.0535 30.1453 37.4639 30.0844 37.8519 30.1883L39.089 30.5192C40.064 30.7801 40.956 29.8881 40.6951 28.9131L40.3642 27.676C40.2603 27.288 40.3212 26.8776 40.4947 26.5153C40.9993 25.4613 41.2819 24.2807 41.2819 23.034C41.2819 18.576 37.6679 14.9621 33.2099 14.9621C29.8445 14.9621 26.9601 17.0217 25.7484 19.9492C25.9572 19.9361 26.1677 19.9294 26.3798 19.9294C31.8666 19.9294 36.3145 24.3774 36.3145 29.8641C36.3145 30.0762 36.3079 30.2868 36.2948 30.4956Z" fill="#333333"/>
<defs>
<linearGradient id="paint0_linear_21_773" x1="0.76001" y1="0.0600052" x2="30.5748" y2="64.4909" gradientUnits="userSpaceOnUse">
<stop stop-color="white" stop-opacity="0.5"/>
<stop offset="1" stop-color="white" stop-opacity="0"/>
</linearGradient>
</defs>
</svg>
