<svg width="54" height="54" viewBox="0 0 54 54" fill="none" xmlns="http://www.w3.org/2000/svg">
<rect x="0.52002" y="0.0600052" width="53.48" height="53.48" rx="15.28" fill="#F6F5FD"/>
<rect x="0.99752" y="0.537505" width="52.525" height="52.525" rx="14.8025" stroke="url(#paint0_linear_21_779)" stroke-opacity="0.25" stroke-width="0.955"/>
<path opacity="0.5" d="M17.0297 36.4458C18.7271 38.1432 21.459 38.1432 26.9228 38.1432C32.3866 38.1432 35.1185 38.1432 36.8159 36.4458C38.5133 34.7484 38.5133 32.0164 38.5133 26.5526C38.5133 21.0888 38.5133 18.3569 36.8159 16.6595C35.1185 14.9621 32.3866 14.9621 26.9228 14.9621C21.459 14.9621 18.7271 14.9621 17.0297 16.6595C15.3323 18.3569 15.3323 21.0888 15.3323 26.5527C15.3323 32.0165 15.3323 34.7484 17.0297 36.4458Z" fill="#333333"/>
<path d="M22.0141 24.1158C21.9972 23.8221 21.9968 23.4282 21.9968 22.8524V15.0417C23.3365 14.9621 24.9519 14.9621 26.9228 14.9621C28.8937 14.9621 30.5091 14.9621 31.8488 15.0417V22.8524C31.8488 23.4282 31.8484 23.8221 31.8315 24.1158C31.814 24.42 31.7819 24.5136 31.7739 24.5315C31.6034 24.9155 31.1826 25.1226 30.7744 25.0234C30.7553 25.0188 30.6616 24.9871 30.4098 24.8154C30.1668 24.6496 29.8545 24.4096 29.3983 24.0583L29.3206 23.9985C28.8916 23.6676 28.5572 23.4098 28.1929 23.2516C27.3827 22.8996 26.4628 22.8996 25.6527 23.2516C25.2884 23.4098 24.954 23.6676 24.5249 23.9985L24.4473 24.0583C23.9911 24.4096 23.6787 24.6496 23.4358 24.8154C23.184 24.9871 23.0903 25.0188 23.0712 25.0234C22.6629 25.1226 22.2422 24.9155 22.0717 24.5315C22.0637 24.5136 22.0316 24.42 22.0141 24.1158Z" fill="#333333"/>
<defs>
<linearGradient id="paint0_linear_21_779" x1="0.52002" y1="0.0600052" x2="30.3348" y2="64.4909" gradientUnits="userSpaceOnUse">
<stop stop-color="white" stop-opacity="0.5"/>
<stop offset="1" stop-color="white" stop-opacity="0"/>
</linearGradient>
</defs>
</svg>
