<svg width="47" height="48" viewBox="0 0 47 48" fill="none" xmlns="http://www.w3.org/2000/svg">
<circle cx="23.5" cy="24.0288" r="23.5" fill="white"/>
<g clip-path="url(#clip0_21_2183)">
<path d="M31.3062 25.4703C31.3473 25.1419 31.378 24.8136 31.378 24.4647C31.378 24.1158 31.3473 23.7874 31.3062 23.4591L33.4713 21.766C33.6663 21.612 33.7176 21.335 33.5945 21.1092L31.5422 17.5588C31.4499 17.3947 31.2754 17.3023 31.0907 17.3023C31.0292 17.3023 30.9676 17.3126 30.9163 17.3331L28.3612 18.3592C27.8276 17.9488 27.253 17.6101 26.6271 17.3536L26.2371 14.6344C26.2064 14.3881 25.9909 14.2034 25.7343 14.2034H21.6298C21.3733 14.2034 21.1578 14.3881 21.127 14.6344L20.7371 17.3536C20.1112 17.6101 19.5365 17.959 19.0029 18.3592L16.4479 17.3331C16.3863 17.3126 16.3247 17.3023 16.2632 17.3023C16.0887 17.3023 15.9143 17.3947 15.8219 17.5588L13.7697 21.1092C13.6363 21.335 13.6979 21.612 13.8928 21.766L16.058 23.4591C16.0169 23.7874 15.9861 24.1261 15.9861 24.4647C15.9861 24.8033 16.0169 25.1419 16.058 25.4703L13.8928 27.1634C13.6979 27.3173 13.6466 27.5944 13.7697 27.8201L15.8219 31.3705C15.9143 31.5347 16.0887 31.6271 16.2734 31.6271C16.335 31.6271 16.3966 31.6168 16.4479 31.5963L19.0029 30.5701C19.5365 30.9806 20.1112 31.3192 20.7371 31.5757L21.127 34.295C21.1578 34.5413 21.3733 34.726 21.6298 34.726H25.7343C25.9909 34.726 26.2064 34.5413 26.2371 34.295L26.6271 31.5757C27.253 31.3192 27.8276 30.9703 28.3612 30.5701L30.9163 31.5963C30.9779 31.6168 31.0394 31.6271 31.101 31.6271C31.2754 31.6271 31.4499 31.5347 31.5422 31.3705L33.5945 27.8201C33.7176 27.5944 33.6663 27.3173 33.4713 27.1634L31.3062 25.4703ZM29.2745 23.7156C29.3155 24.0337 29.3258 24.2492 29.3258 24.4647C29.3258 24.6802 29.3053 24.9059 29.2745 25.2138L29.1308 26.3733L30.0441 27.0916L31.1523 27.9535L30.434 29.1951L29.1308 28.6718L28.0637 28.2408L27.1401 28.9386C26.6989 29.267 26.2782 29.5132 25.8575 29.6877L24.7698 30.1289L24.6056 31.2884L24.4004 32.6737H22.9638L22.7688 31.2884L22.6047 30.1289L21.517 29.6877C21.0757 29.503 20.6653 29.267 20.2548 28.9591L19.321 28.2408L18.2333 28.6821L16.9302 29.2054L16.2119 27.9638L17.3201 27.1018L18.2333 26.3835L18.0897 25.224C18.0589 24.9059 18.0384 24.6699 18.0384 24.4647C18.0384 24.2595 18.0589 24.0234 18.0897 23.7156L18.2333 22.5561L17.3201 21.8378L16.2119 20.9758L16.9302 19.7342L18.2333 20.2576L19.3005 20.6885L20.224 19.9908C20.6653 19.6624 21.086 19.4161 21.5067 19.2417L22.5944 18.8005L22.7586 17.6409L22.9638 16.2557H24.3901L24.5851 17.6409L24.7493 18.8005L25.837 19.2417C26.2782 19.4264 26.6886 19.6624 27.0991 19.9702L28.0329 20.6885L29.1206 20.2473L30.4237 19.724L31.142 20.9656L30.0441 21.8378L29.1308 22.5561L29.2745 23.7156ZM23.6821 20.3602C21.4143 20.3602 19.5776 22.1969 19.5776 24.4647C19.5776 26.7324 21.4143 28.5692 23.6821 28.5692C25.9498 28.5692 27.7866 26.7324 27.7866 24.4647C27.7866 22.1969 25.9498 20.3602 23.6821 20.3602ZM23.6821 26.5169C22.5533 26.5169 21.6298 25.5934 21.6298 24.4647C21.6298 23.3359 22.5533 22.4124 23.6821 22.4124C24.8108 22.4124 25.7343 23.3359 25.7343 24.4647C25.7343 25.5934 24.8108 26.5169 23.6821 26.5169Z" fill="#333333"/>
</g>
<defs>
<clipPath id="clip0_21_2183">
<rect width="24.6271" height="24.6271" fill="white" transform="translate(11.28 11.8088)"/>
</clipPath>
</defs>
</svg>
