<svg width="47" height="48" viewBox="0 0 47 48" fill="none" xmlns="http://www.w3.org/2000/svg">
<circle cx="23.5" cy="23.7288" r="23.5" fill="#A0E79F"/>
<path d="M32.9 20.4576V16.19C32.9 14.8646 32.2984 14.3288 30.8038 14.3288H27.0062C25.5116 14.3288 24.91 14.8646 24.91 16.19V20.4482C24.91 21.783 25.5116 22.3094 27.0062 22.3094H30.8038C32.2984 22.3188 32.9 21.783 32.9 20.4576Z" fill="#131313"/>
<path d="M32.9 31.0326V27.235C32.9 25.7404 32.2984 25.1388 30.8038 25.1388H27.0062C25.5116 25.1388 24.91 25.7404 24.91 27.235V31.0326C24.91 32.5272 25.5116 33.1288 27.0062 33.1288H30.8038C32.2984 33.1288 32.9 32.5272 32.9 31.0326Z" fill="#131313"/>
<path d="M22.09 20.4576V16.19C22.09 14.8646 21.4884 14.3288 19.9938 14.3288H16.1962C14.7016 14.3288 14.1 14.8646 14.1 16.19V20.4482C14.1 21.783 14.7016 22.3094 16.1962 22.3094H19.9938C21.4884 22.3188 22.09 21.783 22.09 20.4576Z" fill="#131313"/>
<path d="M22.09 31.0326V27.235C22.09 25.7404 21.4884 25.1388 19.9938 25.1388H16.1962C14.7016 25.1388 14.1 25.7404 14.1 27.235V31.0326C14.1 32.5272 14.7016 33.1288 16.1962 33.1288H19.9938C21.4884 33.1288 22.09 32.5272 22.09 31.0326Z" fill="#131313"/>
</svg>
