<svg width="38" height="37" viewBox="0 0 38 37" fill="none" xmlns="http://www.w3.org/2000/svg">
<circle cx="19" cy="18.3768" r="18.3768" fill="#F7F6FE"/>
<g clip-path="url(#clip0_21_842)">
<path fill-rule="evenodd" clip-rule="evenodd" d="M13.3962 10.4047L18.9992 9.81774L24.6022 10.4047L28.9403 16.1751L18.9996 27.6462L9.05847 16.1751L13.3962 10.4047Z" fill="#FDB300"/>
<path fill-rule="evenodd" clip-rule="evenodd" d="M13.0855 16.2446L18.9998 27.6466L9.05872 16.2446H13.0855Z" fill="#EA6C00"/>
<path fill-rule="evenodd" clip-rule="evenodd" d="M24.915 16.2449L19.0003 27.6469L28.9418 16.2449H24.915Z" fill="#EA6C00"/>
<path fill-rule="evenodd" clip-rule="evenodd" d="M12.9948 16.2446H24.7999L18.8973 27.6467L12.9948 16.2446Z" fill="#FDAD00"/>
<path fill-rule="evenodd" clip-rule="evenodd" d="M18.7977 9.81773L13.2998 10.411L12.9948 16.2441L18.7977 9.81773Z" fill="#FDD231"/>
<path fill-rule="evenodd" clip-rule="evenodd" d="M18.9934 9.81785L24.4913 10.4111L24.7964 16.2442L18.9934 9.81785Z" fill="#FDD231"/>
<path fill-rule="evenodd" clip-rule="evenodd" d="M28.9418 16.2446L24.5923 10.4397L24.9044 16.2446H28.9418Z" fill="#FDAD00"/>
<path fill-rule="evenodd" clip-rule="evenodd" d="M9.05884 16.2446L13.4079 10.4397L13.0958 16.2446H9.05884Z" fill="#FDAD00"/>
<path fill-rule="evenodd" clip-rule="evenodd" d="M18.8979 9.81773L12.9954 16.2441H24.8005L18.8979 9.81773Z" fill="#FEEEB7"/>
</g>
<defs>
<clipPath id="clip0_21_842">
<rect width="19.883" height="19.883" fill="white" transform="translate(9.05823 8.79049)"/>
</clipPath>
</defs>
</svg>
