<svg width="47" height="48" viewBox="0 0 47 48" fill="none" xmlns="http://www.w3.org/2000/svg">
<circle cx="23.5" cy="23.7288" r="23.5" fill="#F7F7F7"/>
<g clip-path="url(#clip0_21_721)">
<path d="M28.3859 24.9815C29.7917 25.9358 30.7768 27.2287 30.7768 28.9526V32.031H34.8813V28.9526C34.8813 26.7156 31.218 25.3919 28.3859 24.9815Z" fill="#333333"/>
<path d="M26.6723 23.8219C28.94 23.8219 30.7768 21.9851 30.7768 19.7174C30.7768 17.4496 28.94 15.6128 26.6723 15.6128C26.19 15.6128 25.7385 15.7155 25.3076 15.8591C26.1592 16.916 26.6723 18.2602 26.6723 19.7174C26.6723 21.1745 26.1592 22.5187 25.3076 23.5756C25.7385 23.7192 26.19 23.8219 26.6723 23.8219Z" fill="#333333"/>
<path d="M20.5153 23.8219C22.783 23.8219 24.6198 21.9851 24.6198 19.7174C24.6198 17.4496 22.783 15.6128 20.5153 15.6128C18.2475 15.6128 16.4108 17.4496 16.4108 19.7174C16.4108 21.9851 18.2475 23.8219 20.5153 23.8219ZM20.5153 17.6651C21.644 17.6651 22.5675 18.5886 22.5675 19.7174C22.5675 20.8461 21.644 21.7696 20.5153 21.7696C19.3865 21.7696 18.463 20.8461 18.463 19.7174C18.463 18.5886 19.3865 17.6651 20.5153 17.6651Z" fill="#333333"/>
<path d="M20.5154 24.8485C17.7756 24.8485 12.3063 26.2235 12.3063 28.953V32.0314H28.7244V28.953C28.7244 26.2235 23.2551 24.8485 20.5154 24.8485ZM26.6721 29.9791H14.3586V28.9633C14.5638 28.2245 17.7448 26.9008 20.5154 26.9008C23.2859 26.9008 26.4669 28.2245 26.6721 28.953V29.9791Z" fill="#333333"/>
</g>
<defs>
<clipPath id="clip0_21_721">
<rect width="24.6271" height="24.6271" fill="white" transform="translate(11.28 11.5088)"/>
</clipPath>
</defs>
</svg>
