<svg width="47" height="48" viewBox="0 0 47 48" fill="none" xmlns="http://www.w3.org/2000/svg">
<circle cx="23.5" cy="23.9288" r="23.5" fill="white"/>
<g clip-path="url(#clip0_21_2177)">
<path d="M30.7768 25.5319V17.3229C30.7768 16.1941 29.8532 15.2706 28.7245 15.2706H14.3587C13.23 15.2706 12.3065 16.1941 12.3065 17.3229V25.5319C12.3065 26.6606 13.23 27.5841 14.3587 27.5841H28.7245C29.8532 27.5841 30.7768 26.6606 30.7768 25.5319ZM28.7245 25.5319H14.3587V17.3229H28.7245V25.5319ZM21.5416 18.349C19.8382 18.349 18.4632 19.724 18.4632 21.4274C18.4632 23.1307 19.8382 24.5057 21.5416 24.5057C23.245 24.5057 24.62 23.1307 24.62 21.4274C24.62 19.724 23.245 18.349 21.5416 18.349ZM34.8813 18.349V29.6364C34.8813 30.7651 33.9578 31.6886 32.829 31.6886H15.3848C15.3848 30.6625 15.3848 30.7651 15.3848 29.6364H32.829V18.349C33.9578 18.349 33.8551 18.349 34.8813 18.349Z" fill="#333333"/>
</g>
<defs>
<clipPath id="clip0_21_2177">
<rect width="24.6271" height="24.6271" fill="white" transform="translate(11.28 11.1663)"/>
</clipPath>
</defs>
</svg>
