<svg width="109" height="15" viewBox="0 0 109 15" fill="none" xmlns="http://www.w3.org/2000/svg">
<path d="M19.0184 12V2.55H20.1996L25.128 9.93281V2.55H26.3093V12H25.128L20.1996 4.61062V12H19.0184ZM31.2156 12.1969C30.52 12.1969 29.9118 12.0438 29.3912 11.7375C28.875 11.4269 28.4725 10.9959 28.1837 10.4447C27.895 9.88906 27.7506 9.24156 27.7506 8.50219C27.7506 7.72781 27.8928 7.05844 28.1771 6.49406C28.4615 5.92531 28.8575 5.48781 29.365 5.18156C29.8768 4.87094 30.4762 4.71562 31.1631 4.71562C31.8762 4.71562 32.4821 4.87969 32.9809 5.20781C33.484 5.53594 33.8603 6.00406 34.1097 6.61219C34.3634 7.22031 34.4728 7.94437 34.4378 8.78437H33.2565V8.36437C33.2434 7.49375 33.0662 6.84406 32.725 6.41531C32.3837 5.98219 31.8762 5.76562 31.2025 5.76562C30.4806 5.76562 29.9315 5.9975 29.5553 6.46125C29.179 6.925 28.9909 7.59 28.9909 8.45625C28.9909 9.29187 29.179 9.93937 29.5553 10.3987C29.9315 10.8581 30.4675 11.0878 31.1631 11.0878C31.6312 11.0878 32.0381 10.9806 32.3837 10.7662C32.7293 10.5519 33.0006 10.2434 33.1975 9.84094L34.3197 10.2281C34.044 10.8537 33.6284 11.3394 33.0728 11.685C32.5215 12.0263 31.9025 12.1969 31.2156 12.1969ZM28.5971 8.78437V7.84594H33.834V8.78437H28.5971ZM37.1519 12L34.9863 4.90594L36.1478 4.9125L37.7294 10.0969L39.3241 4.9125H40.3544L41.9425 10.0969L43.5306 4.9125H44.6856L42.52 12H41.5488L39.8359 6.61219L38.1231 12H37.1519ZM50.7624 12V8.06906L47.5796 2.55H48.938L51.353 6.73031L53.7615 2.55H55.1199L51.9437 8.06906V12H50.7624ZM58.0027 12.1969C57.2983 12.1969 56.6902 12.0372 56.1783 11.7178C55.6708 11.3984 55.2793 10.9566 55.0036 10.3922C54.728 9.82781 54.5902 9.18031 54.5902 8.44969C54.5902 7.70594 54.7302 7.05406 55.0102 6.49406C55.2902 5.93406 55.6861 5.49875 56.198 5.18812C56.7099 4.87312 57.3114 4.71562 58.0027 4.71562C58.7114 4.71562 59.3218 4.87531 59.8336 5.19469C60.3455 5.50969 60.7371 5.94937 61.0083 6.51375C61.2839 7.07375 61.4218 7.71906 61.4218 8.44969C61.4218 9.18906 61.2839 9.84094 61.0083 10.4053C60.7327 10.9653 60.3389 11.405 59.8271 11.7244C59.3152 12.0394 58.7071 12.1969 58.0027 12.1969ZM58.0027 11.0878C58.7377 11.0878 59.2846 10.8428 59.6433 10.3528C60.0021 9.86281 60.1814 9.22844 60.1814 8.44969C60.1814 7.64906 59.9999 7.0125 59.6368 6.54C59.2736 6.06312 58.7289 5.82469 58.0027 5.82469C57.5083 5.82469 57.1014 5.93625 56.7821 6.15937C56.4627 6.3825 56.2243 6.69094 56.0668 7.08469C55.9093 7.47844 55.8305 7.93344 55.8305 8.44969C55.8305 9.24594 56.0143 9.88469 56.3818 10.3659C56.7493 10.8472 57.2896 11.0878 58.0027 11.0878ZM62.8666 12V4.9125H63.9101V6.62531L63.7394 6.40219C63.8226 6.18344 63.9298 5.98219 64.061 5.79844C64.1966 5.61469 64.3476 5.46375 64.5138 5.34562C64.6976 5.19687 64.9054 5.08312 65.1373 5.00437C65.3691 4.92562 65.6054 4.87969 65.846 4.86656C66.0866 4.84906 66.3119 4.86437 66.5219 4.9125V6.00844C66.2769 5.94281 66.0079 5.92531 65.7148 5.95594C65.4216 5.98656 65.1504 6.09375 64.901 6.2775C64.6735 6.43937 64.4963 6.63625 64.3694 6.86812C64.2469 7.1 64.1616 7.35156 64.1135 7.62281C64.0654 7.88969 64.0413 8.16312 64.0413 8.44312V12H62.8666ZM67.7563 12L67.7629 2.55H68.9441V8.325L71.9169 4.9125H73.4329L70.3026 8.45625L73.8004 12H72.1663L68.9441 8.5875V12H67.7563ZM74.3223 13.47L74.3945 12.9253C74.5782 12.9384 74.716 12.9034 74.8079 12.8203C74.8998 12.7372 74.9589 12.6234 74.9851 12.4791C75.0114 12.3347 75.0157 12.175 74.9982 12H74.3223V10.5169H75.6085V12.1969C75.6085 12.6563 75.4948 13.0019 75.2673 13.2338C75.0442 13.4656 74.7292 13.5444 74.3223 13.47ZM84.4616 12.1969C83.7309 12.1969 83.0856 12.0459 82.5256 11.7441C81.9656 11.4422 81.5259 11.02 81.2066 10.4775C80.8916 9.93062 80.7341 9.28969 80.7341 8.55469V2.55656L81.9153 2.55V8.45625C81.9153 8.9025 81.9897 9.29187 82.1384 9.62437C82.2916 9.9525 82.4928 10.2259 82.7422 10.4447C82.9916 10.6634 83.265 10.8275 83.5625 10.9369C83.8644 11.0419 84.1641 11.0944 84.4616 11.0944C84.7634 11.0944 85.0653 11.0397 85.3672 10.9303C85.6691 10.8209 85.9425 10.6591 86.1875 10.4447C86.4369 10.2259 86.6359 9.95031 86.7847 9.61781C86.9334 9.28531 87.0078 8.89812 87.0078 8.45625V2.55H88.1891V8.55469C88.1891 9.28531 88.0294 9.92406 87.71 10.4709C87.395 11.0178 86.9575 11.4422 86.3975 11.7441C85.8375 12.0459 85.1922 12.1969 84.4616 12.1969ZM92.9828 12.1969C92.3134 12.1969 91.7096 12.0831 91.1715 11.8556C90.6378 11.6281 90.1959 11.3044 89.8459 10.8844C89.5003 10.46 89.275 9.95906 89.17 9.38156L90.3775 9.19125C90.5306 9.78625 90.8478 10.2522 91.329 10.5891C91.8146 10.9216 92.3856 11.0878 93.0418 11.0878C93.4662 11.0878 93.849 11.0222 94.1903 10.8909C94.5359 10.7553 94.8093 10.5628 95.0106 10.3134C95.2118 10.0641 95.3125 9.76875 95.3125 9.4275C95.3125 9.2175 95.2753 9.03812 95.2009 8.88937C95.1309 8.73625 95.0325 8.60719 94.9056 8.50219C94.7831 8.39281 94.6431 8.30094 94.4856 8.22656C94.3281 8.15219 94.164 8.09094 93.9934 8.04281L91.585 7.3275C91.3225 7.24875 91.0687 7.15031 90.8237 7.03219C90.5787 6.90969 90.36 6.75875 90.1675 6.57937C89.975 6.39562 89.8218 6.17687 89.7081 5.92312C89.5943 5.665 89.5375 5.36094 89.5375 5.01094C89.5375 4.45094 89.6818 3.97406 89.9706 3.58031C90.2637 3.18219 90.6596 2.87812 91.1584 2.66812C91.6571 2.45812 92.2193 2.35531 92.845 2.35969C93.4793 2.36406 94.0459 2.47781 94.5446 2.70094C95.0478 2.91969 95.4634 3.23469 95.7915 3.64594C96.124 4.05719 96.3471 4.54937 96.4609 5.1225L95.2206 5.33906C95.155 4.95406 95.0084 4.62375 94.7809 4.34812C94.5578 4.06812 94.2778 3.85375 93.9409 3.705C93.604 3.55187 93.2343 3.47312 92.8318 3.46875C92.4468 3.46437 92.099 3.52562 91.7884 3.6525C91.4778 3.77937 91.2306 3.95656 91.0468 4.18406C90.8631 4.40719 90.7712 4.66531 90.7712 4.95844C90.7712 5.24719 90.8543 5.48125 91.0206 5.66062C91.1868 5.83562 91.3903 5.97562 91.6309 6.08062C91.8759 6.18125 92.1143 6.26437 92.3462 6.33L94.1443 6.84844C94.35 6.90531 94.5862 6.98406 94.8531 7.08469C95.1243 7.18531 95.3868 7.3275 95.6406 7.51125C95.8943 7.69062 96.1043 7.93125 96.2706 8.23312C96.4368 8.53062 96.52 8.90687 96.52 9.36187C96.52 9.81687 96.4281 10.2216 96.2443 10.5759C96.065 10.9303 95.8134 11.2278 95.4896 11.4684C95.1659 11.7047 94.7896 11.8841 94.3609 12.0066C93.9321 12.1334 93.4728 12.1969 92.9828 12.1969ZM97.2403 12L100.403 2.55H102.031L105.194 12H103.98L101.02 3.2325H101.388L98.4544 12H97.2403ZM98.7628 9.78844V8.6925H103.672V9.78844H98.7628Z" fill="#8E8E8E"/>
<path d="M6 0.429688C3.18064 0.429688 0.900391 2.70994 0.900391 5.5293C0.900391 9.354 6 15 6 15C6 15 11.0996 9.354 11.0996 5.5293C11.0996 2.70994 8.81936 0.429688 6 0.429688ZM2.35742 5.5293C2.35742 3.51859 3.9893 1.88672 6 1.88672C8.0107 1.88672 9.64258 3.51859 9.64258 5.5293C9.64258 7.62742 7.54445 10.7673 6 12.727C4.48469 10.7819 2.35742 7.60557 2.35742 5.5293Z" fill="#8E8E8E"/>
<path d="M6.00024 7.35001C7.00611 7.35001 7.82153 6.53459 7.82153 5.52872C7.82153 4.52285 7.00611 3.70743 6.00024 3.70743C4.99437 3.70743 4.17896 4.52285 4.17896 5.52872C4.17896 6.53459 4.99437 7.35001 6.00024 7.35001Z" fill="#8E8E8E"/>
</svg>
